<?xml version="1.0" encoding="utf-8"?>
<!-- Generator: Adobe Illustrator 16.0.0, SVG Export Plug-In . SVG Version: 6.00 Build 0)  -->
<!DOCTYPE svg PUBLIC "-//W3C//DTD SVG 1.1//EN" "http://www.w3.org/Graphics/SVG/1.1/DTD/svg11.dtd">
<svg version="1.1" id="Layer_1" xmlns="http://www.w3.org/2000/svg" xmlns:xlink="http://www.w3.org/1999/xlink" x="0px" y="0px"
	 width="989.667px" height="189.002px" viewBox="0 0 989.667 189.002" enable-background="new 0 0 989.667 189.002"
	 xml:space="preserve">
<polygon fill="#FFC100" stroke="#CC9500" stroke-width="6" stroke-miterlimit="10" points="98.042,5.617 126.535,63.352 
	190.249,72.609 144.145,117.549 155.029,181.005 98.042,151.045 41.055,181.005 51.938,117.549 5.835,72.609 69.548,63.352 "/>
<polygon fill="#FFC100" stroke="#CC9500" stroke-width="6" stroke-miterlimit="10" points="296.042,5.617 324.535,63.352 
	388.249,72.609 342.145,117.549 353.029,181.005 296.042,151.045 239.055,181.005 249.938,117.549 203.835,72.609 267.548,63.352 
	"/>
<polygon fill="#FFC100" stroke="#CC9500" stroke-width="6" stroke-miterlimit="10" points="494.042,5.617 522.535,63.352 
	586.248,72.609 540.144,117.549 551.029,181.005 494.042,151.045 437.055,181.005 447.938,117.549 401.835,72.609 465.548,63.352 
	"/>
<polygon fill="#FFC100" stroke="#CC9500" stroke-width="6" stroke-miterlimit="10" points="692.042,5.617 720.535,63.352 
	784.248,72.609 738.144,117.549 749.029,181.005 692.042,151.045 635.054,181.005 645.937,117.549 599.835,72.609 663.548,63.352 
	"/>
<polygon fill="#FFC100" stroke="#CC9500" stroke-width="6" stroke-miterlimit="10" points="890.042,5.617 918.535,63.352 
	982.248,72.609 936.144,117.549 947.029,181.005 890.042,151.045 833.054,181.005 843.937,117.549 797.835,72.609 861.548,63.352 
	"/>
<polyline fill="#FFFFFF" stroke="#CC9500" stroke-width="6" stroke-linecap="round" stroke-miterlimit="10" points="890.042,5.617 
	918.535,63.352 982.248,72.609 936.144,117.549 947.029,181.005 890.042,151.045 "/>
</svg>
